# xmcd
#
# Track frame offsets: 
#        150
#        23591
#        46004
#        71321
#        89261
#        112837
#        139859
#        162625
#        185150
#        213021
#        242927
#
# Disc length: 3693 seconds
#
# Revision: 0
# Processed by: cddbd v1.5.2PL0 Copyright (c) Steve Scherf et al.
# Submitted via: ExactAudioCopy v1.1
#
DISCID=8e0e6b0b
DTITLE=Audrey Wheeler - Let It Be Me
DYEAR=1987
DGENRE=Soul
TTITLE0=Irresistible
TTITLE1=Love On The Inside
TTITLE2=Forget About Her
TTITLE3=Somewhere In Your Life
TTITLE4=Time For Passion
TTITLE5=I Miss You, Love
TTITLE6=Don't Lose Your Touch
TTITLE7=Let It Be Me (Je T'Appartiens)
TTITLE8=Irresistible [Extended Version]
TTITLE9=Forget About Her [Club Mix]
TTITLE10=Irresistible [The UK Remix (The PWL Remix)]
EXTD=
EXTT0=
EXTT1=
EXTT2=
EXTT3=
EXTT4=
EXTT5=
EXTT6=
EXTT7=
EXTT8=
EXTT9=
EXTT10=
PLAYORDER=
